<?xml version="1.0" encoding="utf-8"?>
<!-- Generator: Adobe Illustrator 26.1.0, SVG Export Plug-In . SVG Version: 6.00 Build 0)  -->
<svg version="1.1" id="Ebene_1" xmlns="http://www.w3.org/2000/svg" xmlns:xlink="http://www.w3.org/1999/xlink" x="0px" y="0px"
	 viewBox="0 0 841.89 1190.55" style="enable-background:new 0 0 841.89 1190.55;" xml:space="preserve">
<style type="text/css">
	.st0{fill:#FFFFFF;}
</style>
<g>
	<path class="st0" d="M423.62,787.55c3.14-2.37,6.55-4.46,9.39-7.15c33.63-31.87,63.65-66.78,88.38-106.05
		c16.88-26.81,30.78-55,38.1-86.04c11.14-47.29,3.44-90.86-26.72-129.59c-39.82-51.11-111.63-68.83-169.84-42.2
		c-63.81,29.19-97.32,96.37-82.68,165.22c6.24,29.35,18.08,56.37,33.22,82.05c25.71,43.62,58.16,81.82,94.78,116.59
		c2.84,2.7,6.24,4.8,9.38,7.17"/>
	<path d="M417.63,787.55c-3.14-2.38-6.54-4.48-9.38-7.17c-36.62-34.77-69.07-72.96-94.78-116.59
		c-15.14-25.68-26.97-52.7-33.22-82.05c-14.65-68.85,18.87-136.03,82.68-165.22c58.2-26.63,130.02-8.91,169.84,42.2
		c30.17,38.72,37.87,82.3,26.72,129.59c-7.31,31.04-21.22,59.24-38.1,86.04c-24.73,39.27-54.75,74.18-88.38,106.05
		c-2.84,2.69-6.25,4.78-9.39,7.15C421.62,787.55,419.63,787.55,417.63,787.55z M422.97,627.85c44.69-2.03,79.5-39.05,77.47-82.37
		c-2.08-44.51-38.92-79.16-82.17-77.3c-44.58,1.92-79.4,38.93-77.48,82.37C342.76,594.93,379.84,629.81,422.97,627.85z"/>
</g>
</svg>
